<?xml version="1.0" encoding="UTF-8"?>
<svg width="1200pt" height="1200pt" version="1.1" viewBox="0 0 1200 1200" xmlns="http://www.w3.org/2000/svg">
 <g>
  <path d="m671.65 239.12v-130.06h-142.24v129.71c-0.023437 3.6758-1.1953 7.2539-3.3516 10.234l-93.531 130.59c57-11.117 114.18-1.5898 173.82 8.4688 57.887 12.891 117.44 16.582 176.47 10.941l-107.12-149.47c-2.4453-2.9414-3.8711-6.5938-4.0586-10.414z"/>
  <path d="m689.29 73.766h9.8828c5.1484 0 10.086-2.0469 13.727-5.6875s5.6875-8.5781 5.6875-13.727c-0.046875-5.1016-2.1211-9.9727-5.7617-13.547-3.6406-3.5742-8.5508-5.5586-13.652-5.5117h-198.18c-5.1328-0.046875-10.07 1.9609-13.715 5.5703-3.6445 3.6133-5.6953 8.5352-5.6953 13.668 0 5.1445 2.043 10.082 5.6836 13.723 3.6406 3.6406 8.5781 5.6875 13.727 5.6875h188.29z"/>
  <path d="m1030.6 260.82h-304.06l39.883 55.59 245.47-0.003906c4.6797 0 9.168 1.8594 12.477 5.1719 3.3125 3.3086 5.1719 7.7969 5.1719 12.477v513c0 4.6797-1.8594 9.168-5.1719 12.48-3.3086 3.3086-7.7969 5.168-12.477 5.168h-823.77c-4.6797 0-9.168-1.8594-12.477-5.168-3.3125-3.3125-5.1719-7.8008-5.1719-12.48v-513c0-4.6797 1.8594-9.168 5.1719-12.477 3.3086-3.3125 7.7969-5.1719 12.477-5.1719h245.47l39.883-55.59-303.88 0.003907c-14.496-0.046875-28.41 5.6758-38.676 15.906-10.262 10.234-16.031 24.129-16.031 38.621v615.88c0.046876 14.48 5.832 28.348 16.086 38.57 10.254 10.219 24.141 15.961 38.621 15.961h331.41l4.2344 70.59-54.176 73.055h-145.06c-6.3047 0-12.129 3.3633-15.281 8.8242s-3.1523 12.188 0 17.648c3.1523 5.4609 8.9766 8.8242 15.281 8.8242h588.18c6.3047 0 12.133-3.3633 15.285-8.8242 3.1523-5.4609 3.1523-12.188 0-17.648-3.1523-5.4609-8.9805-8.8242-15.285-8.8242h-145.23l-54.176-73.766 4.2344-70.59 331.59 0.003906c14.461 0 28.332-5.7461 38.555-15.973 10.227-10.227 15.973-24.094 15.973-38.555v-615.18c0-14.461-5.7461-28.332-15.973-38.559-10.223-10.223-24.094-15.969-38.555-15.969z"/>
  <path d="m600 423.53c-70.59-12.176-138-23.293-201.71 3.8828l-68.293 94.055c-13.949 19.516-20.207 43.484-17.578 67.324 2.6289 23.84 13.961 45.875 31.824 61.879 17.863 16.004 41.004 24.855 64.988 24.859h381.71c24 0.035156 47.164-8.8008 65.039-24.816s29.195-38.074 31.785-61.934c2.5859-23.863-3.7422-47.836-17.766-67.312l-64.941-90.531v0.003906c-23.727 4.582-47.836 6.8867-72 6.8828-44.672-1.0508-89.18-5.832-133.06-14.293z"/>
  <path d="m408.18 351.71h-202.41v477.7h788.47v-477.7h-202.59l107.12 149.29c18.973 26.57 27.484 59.203 23.906 91.652-3.5742 32.453-18.988 62.449-43.293 84.25-24.301 21.801-55.789 33.879-88.438 33.922h-381.71c-32.684 0.039062-64.23-11.996-88.578-33.801-24.348-21.805-39.781-51.836-43.332-84.324-3.5547-32.492 5.0273-65.148 24.086-91.699z"/>
 </g>
</svg>
