<?xml version="1.0" encoding="UTF-8" standalone="no"?>
<svg
   width="210mm"
   height="210mm"
   version="1.1"
   viewBox="0 0 210 210"
   id="svg21"
   sodipodi:docname="computer-science-square.svg"
   inkscape:version="1.2.2 (b0a84865, 2022-12-01)"
   xmlns:inkscape="http://www.inkscape.org/namespaces/inkscape"
   xmlns:sodipodi="http://sodipodi.sourceforge.net/DTD/sodipodi-0.dtd"
   xmlns="http://www.w3.org/2000/svg"
   xmlns:svg="http://www.w3.org/2000/svg">
  <defs
     id="defs25" />
  <sodipodi:namedview
     id="namedview23"
     pagecolor="#ffffff"
     bordercolor="#000000"
     borderopacity="0.25"
     inkscape:showpageshadow="2"
     inkscape:pageopacity="0.0"
     inkscape:pagecheckerboard="0"
     inkscape:deskcolor="#d1d1d1"
     inkscape:document-units="pt"
     showgrid="false"
     inkscape:zoom="0.39785078"
     inkscape:cx="593.18722"
     inkscape:cy="780.44336"
     inkscape:window-width="960"
     inkscape:window-height="1027"
     inkscape:window-x="2472"
     inkscape:window-y="301"
     inkscape:window-maximized="0"
     inkscape:current-layer="svg21" />
  <g
     id="g19"
     transform="matrix(0.16248133,0,0,0.16248133,8.2542103,7.3971614)">
    <path
       d="M 671.65,239.12 V 109.06 H 529.41 v 129.71 c -0.0234,3.6758 -1.1953,7.2539 -3.3516,10.234 l -93.531,130.59 c 57,-11.117 114.18,-1.5898 173.82,8.4688 57.887,12.891 117.44,16.582 176.47,10.941 l -107.12,-149.47 c -2.4453,-2.9414 -3.8711,-6.5938 -4.0586,-10.414 z"
       id="path9" />
    <path
       d="m 689.29,73.766 h 9.8828 c 5.1484,0 10.086,-2.0469 13.727,-5.6875 3.641,-3.6406 5.6875,-8.5781 5.6875,-13.727 -0.0469,-5.1016 -2.1211,-9.9727 -5.7617,-13.547 -3.6406,-3.5742 -8.5508,-5.5586 -13.652,-5.5117 h -198.18 c -5.1328,-0.04687 -10.07,1.9609 -13.715,5.5703 -3.6445,3.6133 -5.6953,8.5352 -5.6953,13.668 0,5.1445 2.043,10.082 5.6836,13.723 3.6406,3.6406 8.5781,5.6875 13.727,5.6875 h 188.29 z"
       id="path11" />
    <path
       d="M 1030.6,260.82 H 726.54 l 39.883,55.59 245.47,-0.004 c 4.6797,0 9.168,1.8594 12.477,5.1719 3.3125,3.3086 5.1719,7.7969 5.1719,12.477 v 513 c 0,4.6797 -1.8594,9.168 -5.1719,12.48 -3.3086,3.3086 -7.7969,5.168 -12.477,5.168 h -823.77 c -4.6797,0 -9.168,-1.8594 -12.477,-5.168 -3.3125,-3.3125 -5.1719,-7.8008 -5.1719,-12.48 v -513 c 0,-4.6797 1.8594,-9.168 5.1719,-12.477 3.3086,-3.3125 7.7969,-5.1719 12.477,-5.1719 h 245.47 l 39.883,-55.59 -303.88,0.004 c -14.496,-0.0469 -28.41,5.6758 -38.676,15.906 -10.262,10.234 -16.031,24.129 -16.031,38.621 v 615.88 c 0.0469,14.48 5.832,28.348 16.086,38.57 10.254,10.219 24.141,15.961 38.621,15.961 h 331.41 l 4.2344,70.59 -54.176,73.055 h -145.06 c -6.3047,0 -12.129,3.3633 -15.281,8.8242 -3.152,5.4609 -3.1523,12.188 0,17.648 3.1523,5.4609 8.9766,8.8242 15.281,8.8242 h 588.18 c 6.3047,0 12.133,-3.3633 15.285,-8.8242 3.1523,-5.4609 3.1523,-12.188 0,-17.648 -3.1523,-5.4609 -8.9805,-8.8242 -15.285,-8.8242 h -145.23 l -54.176,-73.766 4.2344,-70.59 331.59,0.004 c 14.461,0 28.332,-5.7461 38.555,-15.973 10.227,-10.227 15.973,-24.094 15.973,-38.555 v -615.18 c 0,-14.461 -5.7461,-28.332 -15.973,-38.559 -10.223,-10.223 -24.094,-15.969 -38.555,-15.969 z"
       id="path13" />
    <path
       d="m 600,423.53 c -70.59,-12.176 -138,-23.293 -201.71,3.8828 l -68.293,94.055 c -13.949,19.516 -20.207,43.484 -17.578,67.324 2.6289,23.84 13.961,45.875 31.824,61.879 17.863,16.004 41.004,24.855 64.988,24.859 h 381.71 c 24,0.0352 47.164,-8.8008 65.039,-24.816 17.875,-16.0152 29.195,-38.074 31.785,-61.934 2.5859,-23.863 -3.7422,-47.836 -17.766,-67.312 l -64.941,-90.531 v 0.004 c -23.727,4.582 -47.836,6.8867 -72,6.8828 -44.672,-1.0508 -89.18,-5.832 -133.06,-14.293 z"
       id="path15" />
    <path
       d="M 408.18,351.71 H 205.77 v 477.7 H 994.24 V 351.71 H 791.65 L 898.77,501 c 18.973,26.57 27.484,59.203 23.906,91.652 -3.5742,32.453 -18.988,62.449 -43.293,84.25 -24.301,21.801 -55.789,33.879 -88.438,33.922 h -381.71 c -32.684,0.0391 -64.23,-11.996 -88.578,-33.801 -24.348,-21.805 -39.781,-51.836 -43.332,-84.324 -3.5547,-32.492 5.0273,-65.148 24.086,-91.699 z"
       id="path17" />
  </g>
</svg>
